<?xml version="1.0" encoding="UTF-8" standalone="no"?>
<!-- Created with Inkscape (http://www.inkscape.org/) -->

<svg
   width="85.330399mm"
   height="84.2658mm"
   viewBox="0 0 85.330399 84.265801"
   version="1.1"
   id="svg1"
   xmlns="http://www.w3.org/2000/svg">
  <defs
     id="defs1" />
  <g
     id="layer1"
     transform="translate(-187.26059,-223.14615)">
    <ellipse
       style="fill:#ffffff;fill-opacity:1;stroke:#1c1c1c;stroke-width:0;stroke-linecap:butt;stroke-linejoin:bevel;stroke-dasharray:none;stroke-opacity:0"
       id="path623"
       cx="229.92578"
       cy="265.27905"
       rx="42.665192"
       ry="42.1329"
       transform="translate(1.1458334e-6)" />
    <path
       id="rect613-2"
       style="fill:#6741d9;fill-opacity:1;stroke:#1c1c1c;stroke-width:0;stroke-linecap:butt;stroke-linejoin:bevel;stroke-dasharray:none;stroke-opacity:0"
       d="m 229.89746,223.14631 a 42.637035,42.10474 0 0 0 -41.95351,34.97978 h 13.70769 0.50023 v 0.004 c 0.85229,0.0168 1.33324,0.12436 1.33325,0.82889 0,0.83333 -0.66661,2.5 -0.66662,4.16667 -1e-5,1.66668 0.66661,3.33333 0.66662,4.16667 0,0.70454 -0.48096,0.81257 -1.33325,0.82941 v 0.004 h -0.49971 -14.11232 v 0.98185 a 42.637035,42.10474 0 0 0 42.35762,38.24831 42.637035,42.10474 0 0 0 42.63719,-42.10492 42.637035,42.10474 0 0 0 -42.63719,-42.10441 z m 26.96632,38.97954 c 0.0937,0 0.19052,6.8e-4 0.28835,0.002 v -0.002 h 5.99964 v 5.1e-4 c 0.057,-10e-6 0.10972,-5.1e-4 0.16691,-5.1e-4 2.16666,0 4.49965,2.4e-4 5.66632,0.16691 1.16669,0.16667 1.16685,0.49967 0.83354,1.16634 -0.33334,0.66667 -1.00016,1.66703 -1.83348,2.3337 -0.83334,0.66667 -1.83293,1.00004 -2.16627,0.91674 -0.33335,-0.0833 -3e-5,-0.58365 0.33331,-1.08365 0.33333,-0.50001 0.66646,-1.00004 -0.83354,-1.25005 -0.71245,-0.11874 -1.84039,-0.18115 -3.00499,-0.2496 h -5.16144 v -10e-4 c -0.0865,6.6e-4 -0.17178,10e-4 -0.25528,10e-4 -0.66667,0 -1.20601,-2.6e-4 -1.30896,-0.16691 -0.10296,-0.16667 0.23047,-0.50021 0.23047,-0.83355 0,-0.33334 -0.33343,-0.66635 -0.23874,-0.83302 0.0947,-0.16667 0.61749,-0.16691 1.28416,-0.16691 z" />
    <g
       id="path2-0"
       transform="translate(190.27748,59.211663)"
       style="fill:#ffffff;fill-opacity:1;stroke:#ffffff;stroke-width:0;stroke-dasharray:none;stroke-opacity:1">
      <path
         id="path611-1"
         style="color:#000000;fill:#ffffff;fill-opacity:1;stroke:#ffffff;stroke-width:0;stroke-linecap:round;stroke-linejoin:bevel;stroke-dasharray:none;stroke-opacity:1"
         d="m 39.854082,180.64888 c -0.686573,1.07564 -1.121369,2.32074 -1.534273,3.66541 0.158855,0.087 0.331393,0.17175 0.483691,0.25993 0.110501,0.064 0.203402,0.12984 0.310059,0.19431 0.440142,-1.41143 0.989212,-2.84686 1.976107,-4.08709 -0.408986,-0.0211 -0.821414,-0.031 -1.235584,-0.0326 z m -2.341459,0.1018 c -1.76132,0.15464 -3.469285,0.48548 -5.103565,0.98186 1.451339,0.54195 2.848532,1.09356 4.096908,1.67121 0.273633,-0.88143 0.588193,-1.78025 1.006657,-2.65307 z m 6.141227,0.19431 c -0.220697,0.17304 -0.42919,0.34995 -0.610299,0.53537 -1.094959,1.12098 -1.662971,2.70007 -2.195214,4.46226 0.259424,0.19789 0.468387,0.39002 0.700732,0.58549 0.445438,-1.47812 1.020352,-2.95389 2.115633,-4.14135 0.422009,-0.45752 0.899883,-0.83961 1.406633,-1.17771 -0.468107,-0.10001 -0.939771,-0.19038 -1.417485,-0.26406 z m 4.239018,1.04489 c -1.123523,0.50305 -2.110209,1.05063 -2.757455,1.75235 -0.917981,0.99525 -1.443065,2.56016 -1.936315,4.29638 0.707863,0.71687 1.276065,1.34898 1.781803,1.79731 1.250977,1.1091 2.466776,1.5028 3.87935,1.95905 l -0.615467,1.90221 c -1.412528,-0.45626 -3.023223,-0.97629 -4.5899,-2.36523 -1.566632,-1.38894 -2.816588,-3.26927 -5.85339,-5.0276 -2.059346,-1.19238 -5.039741,-2.34659 -8.286832,-3.48661 -0.287709,0.12829 -0.573516,0.25973 -0.855245,0.39843 3.108613,1.05027 6.007497,2.13901 8.16746,3.37188 3.247068,1.85336 4.691289,3.95292 6.109188,5.15008 1.417941,1.19717 3.143601,1.8725 4.996077,2.5802 l -0.714685,1.86707 c -1.852476,-0.7077 -3.831831,-1.4486 -5.57227,-2.91765 -1.74044,-1.46948 -2.908161,-3.28676 -5.810498,-4.94337 -2.288227,-1.30608 -5.778878,-2.55578 -9.523966,-3.78633 -0.242302,0.15396 -0.483397,0.30929 -0.719853,0.47129 3.535506,1.10448 6.869809,2.2466 9.27902,3.58428 3.128633,1.73712 4.489232,3.71495 6.071981,4.98832 1.582702,1.27338 3.738252,2.19814 5.976896,3.14038 l -0.775663,1.84381 c -0.902077,-0.37968 -1.816257,-0.76416 -2.710946,-1.18649 -0.256524,0.57047 -0.421935,1.06041 -0.414961,1.3808 0.0094,0.43175 0.336434,1.02723 0.784965,1.72186 3.114151,-1.40676 5.197414,-3.5927 5.911267,-5.69733 0.739419,-2.18025 0.0248,-4.69397 0.601513,-7.10344 0.354548,-1.48098 1.217367,-2.60488 2.215369,-3.56206 -1.455563,-0.86061 -3.007988,-1.57505 -4.637443,-2.12959 z m 6.38669,3.26802 c -0.987293,0.89448 -1.758532,1.80047 -2.018998,2.88872 -0.378508,1.58127 0.330568,4.38193 -0.652673,7.2812 -0.983239,2.89927 -3.646637,5.47371 -7.361308,7.0466 -3.714699,1.57289 -8.361024,2.10578 -12.943396,2.65462 l -0.238229,-1.98437 c 2.704944,-0.32396 5.381119,-0.65796 7.804175,-1.16117 -0.454953,-0.99114 -0.876789,-2.09757 -0.841292,-3.39773 0.03731,-1.36656 0.545277,-2.67873 1.080037,-3.94188 -1.568368,-1.39692 -2.729604,-2.92548 -5.208984,-4.30206 -1.198818,-0.66563 -2.759489,-1.31112 -4.507218,-1.94562 -0.249998,0.43034 -0.450802,0.79667 -0.578776,1.24799 -0.115439,0.40747 -0.187854,0.99716 -0.252698,1.62367 0.293503,0.0352 0.561859,0.0635 0.784448,0.0744 0.790524,0.0388 1.115748,-0.0832 1.267623,-0.1757 0.151876,-0.0925 0.237089,-0.21295 0.432015,-0.53124 l 1.704805,1.04283 c -0.194925,0.31829 -0.499969,0.83471 -1.09554,1.19735 -0.595606,0.36263 -1.376786,0.51558 -2.406571,0.46508 -2.059563,-0.10101 -5.086449,-0.87666 -8.509559,-0.25424 -0.990033,0.18001 -2.036196,0.49413 -3.115572,0.88625 -0.251616,0.47932 -0.48664,0.96866 -0.70745,1.46606 1.353102,-0.51738 2.692342,-0.93153 4.006474,-1.17047 3.910051,-0.71096 7.355262,0.10819 9.113139,-0.0336 1.757893,-0.14175 2.345985,-0.96025 3.289205,-2.11357 l 1.548742,1.26556 c -0.94322,1.15331 -2.241592,2.64318 -4.67775,2.83962 -2.436109,0.19663 -5.492657,-0.61389 -8.915735,0.008 -1.658294,0.30152 -3.462999,0.9526 -5.34541,1.78387 -0.144057,0.45508 -0.277874,0.91458 -0.396359,1.3808 2.105691,-0.95414 4.190004,-1.72612 6.215642,-2.09445 3.910052,-0.71096 7.307247,0.0946 9.318811,-0.1757 2.011548,-0.27033 3.248866,-1.48522 4.710823,-2.93367 l 1.406116,1.42162 c -1.461958,1.44845 -3.148636,3.13136 -5.849772,3.49436 -0.652275,0.0876 -1.329195,0.10374 -2.027267,0.0899 0.362755,1.83195 0.656484,3.76647 0.423747,5.91798 -0.140971,1.3032 -0.438535,2.54532 -0.468705,3.67368 -0.03017,1.12836 0.15068,2.09597 0.957047,3.09955 0.592103,0.7369 1.618253,1.51083 2.916618,2.30167 l 9.052678,-2.7156 c -0.205472,-0.60563 -0.426479,-1.21344 -0.668693,-1.82831 -3.025349,0.75532 -6.236189,1.27914 -9.430433,1.79576 l -0.318326,-1.97456 c 5.303016,-0.85808 10.540455,-1.72175 14.646134,-3.51348 4.105683,-1.79174 7.154594,-4.52753 8.552966,-7.67188 0.699218,-1.57187 1.021259,-3.33557 1.243852,-4.98264 0.222593,-1.64708 0.318778,-3.14607 0.738456,-4.36718 0.128985,-0.37527 0.302511,-0.70661 0.502295,-1.00149 -0.347286,-0.34703 -0.708063,-0.68011 -1.075386,-1.00614 -0.36646,0.3193 -0.628404,0.69684 -0.797368,1.26349 -0.438381,1.47029 0.03934,4.88078 -1.158585,8.26565 -1.197961,3.38519 -4.103474,6.5157 -8.255827,8.45116 -4.152357,1.93515 -9.395142,2.63396 -14.566553,3.3476 l -0.273368,-1.98024 c 5.171411,-0.71332 10.271368,-1.44354 13.996045,-3.17965 3.72465,-1.73579 6.229656,-4.5199 7.215063,-7.30447 0.985407,-2.78457 0.4193,-5.79839 1.127063,-8.17211 0.239187,-0.80215 0.666965,-1.44198 1.171505,-1.95647 -0.18439,-0.13896 -0.373356,-0.27176 -0.561723,-0.40566 z m -30.650325,1.24385 c -0.383975,0.32325 -0.756335,0.65952 -1.119829,1.00511 -0.09565,0.40721 -0.172478,0.80699 -0.219624,1.19786 -0.08363,0.69307 -0.07379,1.43003 -0.04444,2.18591 0.390881,-0.0276 0.774324,-0.0443 1.148767,-0.0486 -0.0091,-0.70727 -0.0088,-1.43568 0.104903,-2.16473 0.120067,-0.77031 0.349686,-1.43263 0.572058,-2.03863 -0.146132,-0.0458 -0.29448,-0.0913 -0.441833,-0.13695 z m 2.348693,0.74776 c -0.221451,0.60421 -0.412382,1.15999 -0.502294,1.73685 -0.08484,0.54424 -0.08854,1.21579 -0.08062,1.92339 0.415679,0.0311 0.804588,0.0706 1.179257,0.11266 0.06323,-0.64251 0.136048,-1.29812 0.313159,-1.92288 0.152457,-0.53825 0.366639,-0.9819 0.578259,-1.36633 -0.48333,-0.16205 -0.99056,-0.3226 -1.487765,-0.48369 z m 32.908069,2.24586 c -0.01272,0.0342 -0.02611,0.0547 -0.03876,0.0915 -0.267057,0.77698 -0.415455,2.2746 -0.646472,3.98425 -0.0016,0.0122 -0.004,0.025 -0.0057,0.0372 0.612752,0.24175 1.102087,0.32118 1.842782,0.002 0.331099,-0.14261 0.759065,-0.43749 1.219564,-0.78599 -0.699649,-1.17691 -1.4939,-2.28897 -2.371432,-3.329 z m -38.659139,0.49506 c -0.36221,0.45241 -0.708756,0.91758 -1.039213,1.39526 0.35686,-0.09 0.71251,-0.1732 1.066085,-0.24029 -0.01718,-0.37966 -0.02636,-0.76593 -0.02687,-1.15497 z m 42.008289,4.64468 c -0.466613,0.32798 -0.934684,0.6101 -1.406633,0.81338 -1.104359,0.47569 -2.116111,0.37906 -2.964676,0.13281 -0.05141,0.25922 -0.10906,0.52086 -0.170533,0.78342 0.967095,0.26508 1.762719,0.40331 2.828768,0.008 0.556243,-0.20625 1.246535,-0.6249 1.992127,-1.13637 -0.09156,-0.20137 -0.182366,-0.4031 -0.279053,-0.60151 z m -21.477242,1.27434 c -0.406207,1.0324 -0.709301,1.98532 -0.729671,2.7311 -0.02529,0.92665 0.349455,1.84395 0.833024,2.87476 0.346936,-0.0945 0.684226,-0.19575 1.014925,-0.30128 -0.428988,-0.6691 -0.837808,-1.44406 -0.858862,-2.4107 -0.01925,-0.88427 0.276611,-1.65765 0.624768,-2.36523 -0.297869,-0.17174 -0.597997,-0.34022 -0.884184,-0.52865 z m 22.532991,1.22938 c -0.693822,0.45172 -1.38596,0.85413 -2.073258,1.10898 -1.582188,0.58666 -2.960065,0.33676 -4.089673,0.0336 -0.0775,0.21162 -0.164803,0.4225 -0.253731,0.63303 1.429015,0.27388 2.721344,0.43932 4.16357,0.005 0.737019,-0.22178 1.575968,-0.64789 2.459798,-1.1653 -0.06768,-0.20575 -0.133899,-0.41218 -0.206706,-0.61547 z m -39.064282,1.91823 c -0.381798,0.0152 -0.768178,0.0429 -1.158069,0.0832 0.429153,2.85018 0.812711,5.73393 0.57981,8.50129 -0.13011,1.54588 -0.420527,2.9129 -0.387057,4.13256 0.03347,1.21967 0.314816,2.28434 1.418002,3.52537 2.206371,2.48201 8.173109,5.53737 14.150557,8.4925 l -0.8847,1.79266 c -1.915563,-0.94703 -3.810068,-1.88474 -5.614128,-2.82463 -2.342541,0.91639 -4.566853,1.81762 -6.5257,3.41684 -0.05433,0.0444 -0.107086,0.0996 -0.16123,0.14521 2.885499,1.96574 6.211615,3.33578 9.807153,3.95222 0.38736,-0.43523 0.792015,-0.90312 1.223181,-1.42059 1.68719,-2.02492 3.748069,-4.77793 4.943368,-7.22695 0.957421,-1.96165 1.38766,-3.75426 1.422652,-5.456 l -3.77238,1.15601 c 0.738296,0.33866 1.484366,0.67696 2.236556,1.0113 l -0.812353,1.8278 c -4.856954,-2.15887 -9.758931,-4.19767 -12.02769,-7.02128 -1.134382,-1.41181 -1.436234,-2.98785 -1.398364,-4.40438 0.03787,-1.41654 0.359719,-2.72061 0.480591,-3.83801 0.217245,-2.00838 -0.102133,-3.8661 -0.496094,-5.79551 -0.326018,-0.0183 -0.658485,-0.0343 -0.992187,-0.0481 0.421547,2.34945 0.792063,4.76578 0.562756,7.26054 -0.130719,1.42216 -0.422101,2.72689 -0.42168,3.90209 4.22e-4,1.1752 0.22603,2.1922 1.171505,3.31866 1.890957,2.25291 7.240404,4.93223 12.615251,7.50186 l -0.862997,1.80455 c -5.374854,-2.56964 -10.774961,-5.03104 -13.283427,-8.01967 -1.254235,-1.49424 -1.640195,-3.12352 -1.640727,-4.6054 -5.31e-4,-1.48188 0.317876,-2.84427 0.432015,-4.08606 0.210168,-2.28643 -0.165295,-4.6461 -0.604614,-7.07812 z m -3.128491,0.44545 c -1.886712,0.47648 -3.939829,1.34836 -6.057511,2.36626 -0.184021,1.2313 -0.280603,2.49226 -0.280603,3.77755 -10e-7,0.37137 0.01163,0.73966 0.02739,1.10691 0.476623,-0.24841 0.949199,-0.49098 1.396814,-0.69556 2.152639,-0.98387 3.870747,-1.35671 5.466333,-1.67742 -0.09639,-1.57325 -0.303509,-3.2084 -0.552421,-4.87774 z m 41.517362,0.96222 c -0.25013,0.10449 -0.500469,0.19997 -0.750858,0.28318 0.250503,0.50902 0.470046,1.04744 0.617533,1.62781 0.180677,0.71096 0.2251,1.40545 0.22996,2.08463 0.262539,-0.0464 0.525974,-0.086 0.79065,-0.11782 0.04877,-0.65711 0.06549,-1.27925 -0.08682,-1.90531 -0.13832,-0.56858 -0.437784,-1.24736 -0.800468,-1.97249 z m -6.709151,0.28008 c -1.490876,2.38601 -3.762677,4.41285 -6.551538,5.97535 0.890719,2.58342 1.790846,5.21909 2.041736,7.83776 0.2233,2.3307 -0.102544,4.58725 -0.968933,6.99182 0.874499,0.40502 1.717415,0.72181 3.432349,0.80151 1.200528,0.0558 2.887791,-0.0429 4.706172,-0.18397 0.489115,-0.55713 0.954833,-1.13492 1.393197,-1.73478 -0.725115,-0.48496 -1.373292,-0.98843 -1.888257,-1.52652 -0.884314,-0.92384 -1.32312,-1.9545 -1.465027,-2.9254 -0.05194,-0.35537 -0.06882,-0.70006 -0.06511,-1.03405 -0.802756,0.31308 -1.758919,0.68024 -2.472201,0.96221 l -0.734322,-1.85931 c 1.369349,-0.54134 2.744717,-1.08469 4.767668,-1.85725 1.694533,-0.64715 3.901594,-1.49043 6.199105,-1.74977 0.0749,-0.39054 0.141735,-0.78383 0.198437,-1.1808 -1.941359,0.23601 -4.038611,0.99579 -5.874577,1.6986 -2.202694,0.8432 -3.946311,1.53077 -5.695259,2.22105 l -0.734322,-1.85983 c 1.748971,-0.69005 3.50198,-1.38325 5.714896,-2.23036 1.962806,-0.75136 4.350764,-1.66898 6.795968,-1.86758 0.01956,-0.31892 0.03057,-0.64004 0.03824,-0.96222 -2.189972,0.0494 -4.689064,0.95066 -6.892602,1.79937 -2.265913,0.87272 -4.137078,1.62052 -6.015137,2.37092 l -0.74259,-1.85725 c 1.878059,-0.7504 3.760636,-1.5038 6.039425,-2.38125 0.05862,-0.0226 0.121113,-0.0459 0.18035,-0.0687 0.193332,-0.88937 0.335924,-1.64531 0.192237,-2.40761 -0.145445,-0.77176 -0.657872,-1.80195 -1.23145,-2.88354 -0.123327,-0.0242 -0.25067,-0.0477 -0.371553,-0.0718 z m 3.908806,0.41186 c -0.381652,0.0266 -0.753112,0.0243 -1.117245,0.007 0.338583,0.69993 0.630421,1.42427 0.773596,2.18385 0.133959,0.71069 0.106924,1.36517 0.02584,1.97455 0.39416,-0.13451 0.793946,-0.26397 1.201993,-0.38292 0.01306,-0.75114 -0.0021,-1.46377 -0.156579,-2.07171 -0.138974,-0.54686 -0.403681,-1.11541 -0.727604,-1.71049 z m -38.105685,5.2524 c -1.452892,0.29679 -2.871854,0.63419 -4.69532,1.46761 -0.626431,0.28631 -1.318667,0.64978 -2.037085,1.04386 0.03402,0.26374 0.06903,0.52705 0.111104,0.78807 0.375461,-0.22715 0.752393,-0.45745 1.11156,-0.64751 2.130871,-1.12756 3.879457,-1.47261 5.464783,-1.74821 0.02152,-0.29789 0.03795,-0.59837 0.04496,-0.90382 z m 25.841834,1.22628 c -0.111841,0.0508 -0.218092,0.1072 -0.331246,0.15658 -0.213499,0.0932 -0.438704,0.17218 -0.656291,0.26045 0.763163,2.23478 1.518726,4.53092 1.71049,6.92257 0.206003,2.56926 -0.269571,5.16024 -1.460893,7.82226 -1.191323,2.66203 -3.065679,5.37222 -4.85345,7.58404 -0.05002,0.0619 -0.09842,0.1146 -0.148312,0.1757 0.411144,-0.0329 0.819126,-0.0754 1.224215,-0.12764 0.168466,-0.21525 0.329191,-0.40481 0.503328,-0.63924 1.603863,-2.15894 3.471759,-5.21191 4.587834,-7.84552 1.116076,-2.63361 1.505313,-4.833 1.278992,-7.19542 -0.211382,-2.20631 -1.002548,-4.63116 -1.854667,-7.11378 z m -2.865975,1.10897 c -0.368501,0.12256 -0.745167,0.23526 -1.121896,0.34779 0.695966,1.77225 1.336637,3.62075 1.527039,5.62653 0.234949,2.47523 -0.249241,5.0892 -1.58595,7.82794 -1.336576,2.73847 -3.470333,5.55738 -5.214669,7.6507 -0.114436,0.13734 -0.214755,0.248 -0.326078,0.3793 0.38727,0.0271 0.776791,0.0447 1.168921,0.0543 0.420443,-0.47773 0.843694,-0.97713 1.272274,-1.5074 1.712957,-2.11942 3.507789,-4.73742 4.584216,-7.14271 1.076429,-2.4053 1.469209,-4.62161 1.290877,-6.84558 -0.164721,-2.05441 -0.847413,-4.19282 -1.594734,-6.39083 z m -23.261629,0.64286 c -1.337418,0.24698 -2.638833,0.56854 -4.288111,1.44125 -0.5052,0.26734 -1.050928,0.59653 -1.622123,0.96377 0.07268,0.29105 0.153988,0.57826 0.236678,0.86506 0.325979,-0.2226 0.655152,-0.45122 0.963249,-0.63923 1.848263,-1.1279 3.327891,-1.52722 4.618839,-1.77199 0.02776,-0.28819 0.05513,-0.57684 0.09147,-0.85886 z m -0.133326,2.90163 c -1.03617,0.21572 -2.089234,0.55516 -3.533634,1.43661 -0.417092,0.25453 -0.869967,0.56024 -1.348238,0.9033 0.839342,2.20078 1.975016,4.25026 3.366203,6.09679 0.297553,-0.29849 0.59488,-0.59954 0.894002,-0.85628 1.257501,-1.07935 2.49009,-1.68914 3.656624,-2.11874 -0.422285,-0.36999 -0.806316,-0.74318 -1.142049,-1.12086 -1.260939,-1.4185 -1.772854,-2.92185 -1.892908,-4.34082 z m 41.281201,0.52038 c -0.353684,0.0917 -0.706397,0.19282 -1.054715,0.30076 -0.04762,0.47106 -0.07724,0.91537 -0.03101,1.29449 0.06673,0.54715 0.229713,0.99142 0.711067,1.4981 0.07668,0.0807 0.177616,0.16453 0.274919,0.24805 0.197233,-0.42906 0.382222,-0.86489 0.555522,-1.3069 -0.338692,-0.67139 -0.453305,-1.37123 -0.455787,-2.0345 z m -19.825663,0.5917 -7.163904,2.14974 c 0.325712,0.16791 0.665576,0.33608 1.006141,0.50436 l 6.302974,-1.93063 c -0.04223,-0.24113 -0.09093,-0.48232 -0.145211,-0.72347 z m 16.715776,0.41651 c -0.219983,0.0821 -0.438235,0.16418 -0.646989,0.24391 -0.09313,0.0356 -0.129215,0.0508 -0.219625,0.0853 -0.05525,0.56345 -0.07856,1.07784 -0.01033,1.54461 0.09172,0.62765 0.31197,1.18435 0.931726,1.83193 0.363211,0.37952 0.93394,0.79098 1.581299,1.21388 0.151671,-0.24799 0.295057,-0.50132 0.438216,-0.755 -0.284415,-0.22413 -0.554577,-0.45442 -0.788583,-0.70073 -0.769984,-0.81047 -1.140725,-1.75496 -1.247985,-2.63446 -0.0347,-0.2845 -0.04118,-0.55933 -0.03772,-0.82941 z m -33.21296,5.40484 c -1.473767,0.43578 -2.801219,0.89727 -4.277258,2.16421 -0.296944,0.25488 -0.607935,0.56872 -0.921391,0.89297 0.227615,0.25617 0.461794,0.50592 0.699699,0.7524 0.323037,-0.31831 0.646371,-0.63468 0.977718,-0.91312 1.399866,-1.17635 2.822839,-1.89198 4.204911,-2.44429 -0.229152,-0.15063 -0.46553,-0.30069 -0.683679,-0.45217 z m 2.849955,1.78077 c -1.78636,0.62378 -3.445381,1.26996 -5.083927,2.64686 -0.26896,0.22602 -0.542673,0.49973 -0.815971,0.76895 0.264935,0.23358 0.53389,0.46244 0.808736,0.68471 0.177972,-0.15819 0.349733,-0.32847 0.532267,-0.47749 1.751227,-1.42971 3.634064,-2.33656 5.494755,-3.10317 -0.311125,-0.17333 -0.635109,-0.34593 -0.93586,-0.51986 z m 20.568254,2.39468 c -0.07936,0.17445 -0.177755,0.35161 -0.261483,0.5271 1.058358,0.65559 1.986887,1.17443 3.849378,1.28726 0.614062,0.0372 1.366399,0.01 2.172477,-0.0424 0.345456,-0.27692 0.684513,-0.56112 1.014408,-0.85576 -0.968845,0.0451 -1.89111,0.07 -2.675289,0.0336 -1.913051,-0.0889 -3.131487,-0.5183 -4.099491,-0.94982 z m -1.169955,2.31511 c -0.166351,0.30532 -0.342237,0.60577 -0.51573,0.90744 0.95174,0.58406 1.842106,1.07422 3.14451,1.32136 0.489278,-0.24821 0.97047,-0.50928 1.440223,-0.78806 -1.818961,-0.20818 -3.05995,-0.8334 -4.069003,-1.44074 z m -1.545642,2.62154 c -0.342002,0.54088 -0.686299,1.05715 -1.029394,1.55495 0.853284,-0.21368 1.689147,-0.46925 2.50424,-0.7674 -0.531877,-0.25075 -1.029152,-0.51669 -1.474846,-0.78755 z" />
    </g>
    <ellipse
       style="fill:#ffffff;fill-opacity:0;stroke:#6741d9;stroke-width:0;stroke-linecap:butt;stroke-linejoin:bevel;stroke-dasharray:none;stroke-opacity:1"
       id="path613-5"
       cx="230.03725"
       cy="264.85815"
       rx="26.334427"
       ry="24.785667" />
  </g>
</svg>
