<svg
  width="65"
  height="41"
  viewBox="100 34 65 41"
  xmlns="http://www.w3.org/2000/svg">
  <g transform="translate(-2.3962037,-0.7655249)">
    <path
      style="fill:#4f46e5;fill-opacity:1;stroke:#000000;stroke-width:0.707001;stroke-linecap:round;stroke-linejoin:round"
      d="m 125.83333,35.833332 c 7.5,-0.833334 20.83334,-0.833334 28.33336,1.6e-5 7.50001,0.833351 9.16665,2.499988 9.99998,6.666719 0.83333,4.166731 0.83333,10.833265 -2e-5,14.999948 -0.83335,4.166683 -2.49998,5.833313 -10.00012,6.666647 -7.50013,0.833334 -20.8332,0.833334 -28.33322,1.666684 -7.50001,0.833351 -9.16661,2.499951 -12.50001,4.166652 -3.3334,1.6667 -8.3332,3.3333 -8.3332,2.49995 0,-0.83335 4.9998,-4.16655 7.49985,-6.6666 C 115,63.333299 115,61.666664 115,57.49993 c 0,-4.166733 0,-10.833265 0.83335,-14.999948 0.83335,-4.166683 2.49998,-5.833316 9.99998,-6.66665 z" />
  </g>
</svg>
