<svg
   width="70"
   height="82"
   viewBox="141 85 70 82"
   xmlns="http://www.w3.org/2000/svg">
  <g transform="translate(-2.3962038,-0.76552488)">
    <path
       style="fill:#4f46e5;fill-opacity:1;stroke:#000000;stroke-width:0.707001;stroke-linecap:round;stroke-linejoin:round"
       d="m 190.16667,108.49999 c 1.83333,0.5 3.83333,0.5 5.66668,1.16668 1.83335,0.66668 3.49998,1.99999 5,3.83335 1.50001,1.83336 2.83332,4.16664 4,6.5 1.16667,2.33336 2.16665,4.66664 2.66665,6.49999 0.5,1.83335 0.5,3.16665 -1e-5,3.83332 C 206.99998,131 206,131 204.99999,130.49999 c -1.00001,-0.50002 -1.99999,-1.5 -2.83333,-2.83334 -0.83334,-1.33335 -1.49999,-2.99999 -2.33334,-4.83334 C 198.99998,120.99995 198,119 196.16664,117.49999 c -1.83336,-1.50002 -4.49997,-2.49999 -4.99996,-1.66663 -0.49998,0.83335 1.16665,3.49997 2.66667,6.33334 1.50001,2.83336 2.83331,5.83329 4.33333,8.16664 1.50002,2.33335 3.16666,3.99999 4.66667,6.00002 1.50001,2.00002 2.83332,4.3333 3.83332,6.66666 1.00001,2.33335 1.66666,4.66664 2,7.5 0.33333,2.83337 0.33333,6.16664 -0.16668,7.66663 -0.50001,1.5 -1.49999,1.16667 -2.5,-0.50002 -1.00001,-1.6667 -1.99999,-4.66664 -3.16667,-7.5 -1.16668,-2.83336 -2.49999,-5.49997 -4.50001,-8 -2.00003,-2.50002 -4.66664,-4.8333 -7,-5.99996 C 188.99996,135 187,135 187.16669,136.16669 c 0.16669,1.16668 2.49998,3.49997 4.16666,5.49999 1.66667,2.00002 2.66665,3.66665 3.83333,5.83334 1.16668,2.16669 2.49999,4.83331 4.16667,7.5 1.66669,2.66669 3.66665,5.33331 3.99997,6.99998 0.33332,1.66667 -0.99998,2.33332 -2.66667,1.99998 -1.66669,-0.33335 -3.66665,-1.66665 -5.5,-3.66668 -1.83335,-2.00003 -3.49998,-4.66664 -4.66666,-7.16666 -1.16667,-2.50003 -1.83332,-4.83331 -3.33335,-7.16667 -1.50002,-2.33336 -3.83331,-4.66664 -5.66666,-7.16667 -1.83334,-2.50003 -3.16665,-5.16664 -3.49997,-8.16667 -0.33333,-3.00004 0.33332,-6.3333 -0.16669,-9.16666 -0.50002,-2.83335 -2.16665,-5.16664 -5.1667,-6.83331 -3.00004,-1.66668 -7.33329,-2.66666 -10.66665,-4.16668 -3.33335,-1.50002 -5.66663,-3.49998 -7.49998,-5.83334 -1.83335,-2.33336 -3.16666,-4.999975 -4.16666,-6.83332 -1.00001,-1.833344 -1.66666,-2.833322 -1.16665,-3.333323 0.50002,-0.500001 2.16666,-0.500001 3.5,0.333349 1.33334,0.83335 2.33332,2.499985 3.66667,3.999999 1.33335,1.500015 2.99998,2.833325 4.5,4.166665 1.50001,1.33335 2.83331,2.66666 5.33335,3.49999 2.50004,0.83334 6.16664,1.16666 8.16664,0.99999 2,-0.16667 2.33333,-0.83333 1.83331,-1.66667 -0.50001,-0.83334 -1.83332,-1.83332 -3.33334,-2.83333 -1.50001,-1.00001 -3.16664,-1.99999 -3.66663,-3.833352 -0.5,-1.833363 0.16665,-4.499973 1.33334,-6.499987 1.16668,-2.000015 2.83332,-3.333323 5.16668,-3.999988 2.33336,-0.666665 5.3333,-0.666665 7.49998,0.166684 2.16668,0.833349 3.49999,2.499984 4.49999,4.166666 1.00001,1.666683 1.66666,3.333319 1.49999,4.833331 -0.16668,1.500012 -1.16666,2.833316 -2,4.166666 -0.83334,1.33335 -1.49999,2.66665 -0.99998,3.83333 0.50002,1.16667 2.16666,2.16666 3.99999,2.66665 z"
       id="path18" />
  </g>
</svg>
